<svg width="444" height="444" viewBox="0 0 444 444" fill="none" xmlns="http://www.w3.org/2000/svg">
<path d="M293.563 31L301.063 23H311.563H322.063L329.563 31V39V47L320.563 55H311.563H302.563L293.563 47V39V31Z" fill="#000427"/>
<path d="M302.563 55H320.563V101.5L329.563 128.5L325.563 159L306.063 196L291.563 216.5L255.063 246.5L226.563 241.5L219.563 233L170.563 223L152.063 196L255.063 111L291.563 91.5L297.063 73.25L302.563 55Z" fill="#D6DDFD"/>
<path d="M320.563 101.5V55H302.563L297.063 73.25M320.563 101.5L329.563 128.5M320.563 101.5L297.063 73.25M320.563 101.5L219.563 233M291.563 91.5L255.063 111M291.563 91.5L297.063 73.25M291.563 91.5L255.063 246.5M291.563 91.5L329.563 128.5M291.563 91.5L325.563 159M291.563 91.5L306.063 196M255.063 111L152.063 196M255.063 111L306.063 196M255.063 111L291.563 216.5M329.563 128.5L325.563 159M329.563 128.5L226.563 241.5M306.063 196L325.563 159M306.063 196L291.563 216.5M255.063 246.5L226.563 241.5M255.063 246.5L291.563 216.5M226.563 241.5L219.563 233M219.563 233L170.563 223M170.563 223L152.063 196M170.563 223L325.563 159M152.063 196L291.563 216.5" stroke="black" stroke-width="8"/>
<path d="M300.563 6H311.563H323.063L325.063 20V31H311.563H298.063V20L300.563 6Z" fill="#000427"/>
<path d="M321.563 4.5L324.056 7.17969L323.193 19.1797L323.174 19.3564L322.386 24.8252L323.965 30.3086L323.959 31.7119L316.834 55.7119L314.438 57.5H309.688L307.291 55.7119L300.166 31.7119L300.16 30.3086L301.74 24.8252L300.951 19.3564L300.933 19.1797L300.07 7.17969L302.563 4.5H321.563Z" fill="#000427" stroke="#000427" stroke-width="5" stroke-linejoin="bevel"/>
<path d="M294.563 22L296.313 20H298.063H299.813L301.563 22V24V26L299.813 28H298.063H296.313L294.563 26V24V22Z" fill="#770700"/>
<path d="M321.563 22L323.313 20H325.063H326.813L328.563 22V24V26L326.813 28H325.063H323.313L321.563 26V24V22Z" fill="#770700"/>
<path d="M134.707 99.999L155.083 117.949L186.651 128.162L220.637 109.494L221.376 109.088L222.216 109.015L256.716 106.015L259.465 105.776L260.665 108.261L267.665 122.761L268.203 123.876L268.018 125.101L262.018 164.601L261.971 164.903L261.88 165.196L251.38 198.696L250.72 200.8L248.59 201.366L216.59 209.866L215.469 210.163L214.364 209.816L144.364 187.816L143.504 187.546L142.844 186.934L121.063 166.746V145.407L126.011 146.614L142.461 150.626L126.464 131.029L125.754 130.159L125.6 129.047L123.6 114.547L123.453 113.481L123.861 112.485L128.361 101.485L130.489 96.2832L134.707 99.999Z" fill="#000427" stroke="#000427" stroke-width="8"/>
<path d="M236.563 243L244.063 244.5L223.063 280.5L229.063 374L222.563 374.5L216.563 279L236.563 243Z" fill="#000427" stroke="#000427" stroke-width="5"/>
<path d="M160.563 302L157.563 297H136.563L120.563 300.5L121.063 302L137.063 301.5L160.563 302Z" fill="#000427" stroke="#000427" stroke-width="3"/>
<path d="M161.063 203L163.563 210.5L135.063 217.5L161.063 299.5H154.063L126.063 212.5L161.063 203Z" fill="#000427" stroke="#000427" stroke-width="5"/>
<path d="M225.563 374.5L228.563 369.5L251.063 375L270.563 375.5L294.063 379.5L293.563 381L270.563 379.5H250.563L225.563 374.5Z" fill="#000427" stroke="#000427" stroke-width="3"/>
<path d="M158.997 300.386L153.563 302.5L150.063 327.5L147.12 341.325L135.542 356.838L137.105 356.598L151.063 342L154.583 327.766L158.997 300.386Z" fill="#000427" stroke="#000427" stroke-width="3"/>
<path d="M163.063 302.5L158.563 301L158.237 324.062L155.441 343.367L155.42 367.205L156.983 366.965L159.384 344.042L162.757 324.329L163.063 302.5Z" fill="#000427" stroke="#000427" stroke-width="3"/>
<path d="M158.063 303L153.563 301.5L139.043 316.734L128.62 331.825L114 350.24L115.563 350L132.563 332.5L143.563 317L158.063 303Z" fill="#000427" stroke="#000427" stroke-width="3"/>
<path d="M226.063 374L223.063 369H202.063L186.063 372.5L186.563 374L202.563 373.5L226.063 374Z" fill="#000427" stroke="#000427" stroke-width="3"/>
<path d="M228.107 372.219L222.563 373L223.077 391.388L223.077 412.975L223.563 438L225.14 437.881L227.563 412.975L227.563 392L228.107 372.219Z" fill="#000427" stroke="#000427" stroke-width="3"/>
<path d="M225.602 374.536L225.063 370L247.563 390L264.563 401L285.563 409L284.419 410.092L262.692 404.536L245.017 393.744L225.602 374.536Z" fill="#000427" stroke="#000427" stroke-width="3"/>
</svg>
